<mxfile host="app.diagrams.net" agent="Mozilla/5.0 (Windows NT 10.0; Win64; x64; rv:133.0) Gecko/20100101 Firefox/133.0" version="24.9.1">
  <diagram name="Page-1" id="e7e014a7-5840-1c2e-5031-d8a46d1fe8dd">
    <mxGraphModel dx="4037" dy="1548" grid="1" gridSize="10" guides="1" tooltips="1" connect="1" arrows="1" fold="1" page="1" pageScale="1" pageWidth="1169" pageHeight="826" background="none" math="0" shadow="0">
      <root>
        <mxCell id="0" />
        <mxCell id="1" parent="0" />
        <mxCell id="Q9W1fsMLStfwctIRidVB-1" value="Potro-Pass" style="swimlane;whiteSpace=wrap;html=1;" parent="1" vertex="1">
          <mxGeometry x="-320" y="20" width="1580" height="1040" as="geometry">
            <mxRectangle x="-320" y="20" width="100" height="30" as="alternateBounds" />
          </mxGeometry>
        </mxCell>
        <mxCell id="T4vYuUo_OKdATsCoTxh2-4" value="Asistente" style="swimlane;whiteSpace=wrap;html=1;" vertex="1" parent="Q9W1fsMLStfwctIRidVB-1">
          <mxGeometry x="10" y="30" width="430" height="940" as="geometry" />
        </mxCell>
        <mxCell id="T4vYuUo_OKdATsCoTxh2-5" style="edgeStyle=orthogonalEdgeStyle;rounded=0;orthogonalLoop=1;jettySize=auto;html=1;entryX=0.5;entryY=0;entryDx=0;entryDy=0;" edge="1" parent="T4vYuUo_OKdATsCoTxh2-4" source="T4vYuUo_OKdATsCoTxh2-6" target="T4vYuUo_OKdATsCoTxh2-8">
          <mxGeometry relative="1" as="geometry" />
        </mxCell>
        <mxCell id="T4vYuUo_OKdATsCoTxh2-6" value="Consultar eventos" style="rounded=1;whiteSpace=wrap;html=1;" vertex="1" parent="T4vYuUo_OKdATsCoTxh2-4">
          <mxGeometry x="110" y="350" width="130" height="60" as="geometry" />
        </mxCell>
        <mxCell id="T4vYuUo_OKdATsCoTxh2-7" style="edgeStyle=orthogonalEdgeStyle;rounded=0;orthogonalLoop=1;jettySize=auto;html=1;entryX=0.5;entryY=0;entryDx=0;entryDy=0;" edge="1" parent="T4vYuUo_OKdATsCoTxh2-4" source="T4vYuUo_OKdATsCoTxh2-8" target="T4vYuUo_OKdATsCoTxh2-10">
          <mxGeometry relative="1" as="geometry" />
        </mxCell>
        <mxCell id="T4vYuUo_OKdATsCoTxh2-8" value="Verifica si hay cupo para el evento" style="rounded=1;whiteSpace=wrap;html=1;" vertex="1" parent="T4vYuUo_OKdATsCoTxh2-4">
          <mxGeometry x="110" y="500" width="130" height="45" as="geometry" />
        </mxCell>
        <mxCell id="T4vYuUo_OKdATsCoTxh2-9" style="edgeStyle=orthogonalEdgeStyle;rounded=0;orthogonalLoop=1;jettySize=auto;html=1;entryX=0.5;entryY=0;entryDx=0;entryDy=0;" edge="1" parent="T4vYuUo_OKdATsCoTxh2-4" source="T4vYuUo_OKdATsCoTxh2-10" target="T4vYuUo_OKdATsCoTxh2-11">
          <mxGeometry relative="1" as="geometry" />
        </mxCell>
        <mxCell id="T4vYuUo_OKdATsCoTxh2-10" value="Registrar asistencia al evento" style="rounded=1;whiteSpace=wrap;html=1;" vertex="1" parent="T4vYuUo_OKdATsCoTxh2-4">
          <mxGeometry x="115" y="655" width="120" height="50" as="geometry" />
        </mxCell>
        <mxCell id="T4vYuUo_OKdATsCoTxh2-11" value="Visualizar confirmación de registro" style="rounded=1;whiteSpace=wrap;html=1;" vertex="1" parent="T4vYuUo_OKdATsCoTxh2-4">
          <mxGeometry x="110" y="790" width="130" height="60" as="geometry" />
        </mxCell>
        <mxCell id="T4vYuUo_OKdATsCoTxh2-12" value="Administrador" style="swimlane;whiteSpace=wrap;html=1;" vertex="1" parent="Q9W1fsMLStfwctIRidVB-1">
          <mxGeometry x="1070" y="30" width="480" height="940" as="geometry" />
        </mxCell>
        <mxCell id="T4vYuUo_OKdATsCoTxh2-13" value="Gestionar eventos" style="rounded=1;whiteSpace=wrap;html=1;" vertex="1" parent="T4vYuUo_OKdATsCoTxh2-12">
          <mxGeometry x="70" y="630" width="120" height="60" as="geometry" />
        </mxCell>
        <mxCell id="T4vYuUo_OKdATsCoTxh2-14" value="Generar y consultar reportes" style="rounded=1;whiteSpace=wrap;html=1;" vertex="1" parent="T4vYuUo_OKdATsCoTxh2-12">
          <mxGeometry x="300" y="600" width="120" height="60" as="geometry" />
        </mxCell>
        <mxCell id="T4vYuUo_OKdATsCoTxh2-15" value="Interactuar con el sistema" style="rounded=1;whiteSpace=wrap;html=1;" vertex="1" parent="T4vYuUo_OKdATsCoTxh2-12">
          <mxGeometry x="190" y="340" width="120" height="60" as="geometry" />
        </mxCell>
        <mxCell id="T4vYuUo_OKdATsCoTxh2-59" value="" style="shape=line;html=1;strokeWidth=6;strokeColor=#ff0000;" vertex="1" parent="T4vYuUo_OKdATsCoTxh2-12">
          <mxGeometry x="50" y="450" width="360" height="10" as="geometry" />
        </mxCell>
        <mxCell id="T4vYuUo_OKdATsCoTxh2-60" value="" style="edgeStyle=orthogonalEdgeStyle;html=1;verticalAlign=bottom;endArrow=open;endSize=8;strokeColor=#ff0000;rounded=0;exitX=0.222;exitY=1;exitDx=0;exitDy=0;exitPerimeter=0;" edge="1" parent="T4vYuUo_OKdATsCoTxh2-12" target="T4vYuUo_OKdATsCoTxh2-13">
          <mxGeometry relative="1" as="geometry">
            <mxPoint x="130.08000000000004" y="550" as="targetPoint" />
            <mxPoint x="130.0000000000001" y="460" as="sourcePoint" />
          </mxGeometry>
        </mxCell>
        <mxCell id="T4vYuUo_OKdATsCoTxh2-63" style="edgeStyle=orthogonalEdgeStyle;rounded=0;orthogonalLoop=1;jettySize=auto;html=1;entryX=0.555;entryY=0.605;entryDx=0;entryDy=0;entryPerimeter=0;" edge="1" parent="T4vYuUo_OKdATsCoTxh2-12" source="T4vYuUo_OKdATsCoTxh2-15" target="T4vYuUo_OKdATsCoTxh2-59">
          <mxGeometry relative="1" as="geometry" />
        </mxCell>
        <mxCell id="T4vYuUo_OKdATsCoTxh2-79" value="" style="edgeStyle=orthogonalEdgeStyle;html=1;verticalAlign=bottom;endArrow=open;endSize=8;strokeColor=#ff0000;rounded=0;" edge="1" parent="T4vYuUo_OKdATsCoTxh2-12">
          <mxGeometry relative="1" as="geometry">
            <mxPoint x="359.83" y="600" as="targetPoint" />
            <mxPoint x="359.83" y="460" as="sourcePoint" />
          </mxGeometry>
        </mxCell>
        <mxCell id="T4vYuUo_OKdATsCoTxh2-33" value="&lt;font style=&quot;font-size: 10px;&quot;&gt;Crear, editar o eliminar eventos&lt;/font&gt;" style="shape=note;whiteSpace=wrap;html=1;backgroundOutline=1;darkOpacity=0.05;size=18;" vertex="1" parent="T4vYuUo_OKdATsCoTxh2-12">
          <mxGeometry x="20" y="490" width="70" height="90" as="geometry" />
        </mxCell>
        <mxCell id="T4vYuUo_OKdATsCoTxh2-80" style="edgeStyle=orthogonalEdgeStyle;rounded=0;orthogonalLoop=1;jettySize=auto;html=1;entryX=0.001;entryY=0.415;entryDx=0;entryDy=0;entryPerimeter=0;" edge="1" parent="T4vYuUo_OKdATsCoTxh2-12" source="T4vYuUo_OKdATsCoTxh2-33" target="T4vYuUo_OKdATsCoTxh2-13">
          <mxGeometry relative="1" as="geometry" />
        </mxCell>
        <mxCell id="T4vYuUo_OKdATsCoTxh2-83" value="" style="shape=line;html=1;strokeWidth=6;strokeColor=#ff0000;" vertex="1" parent="T4vYuUo_OKdATsCoTxh2-12">
          <mxGeometry x="50" y="750" width="360" height="10" as="geometry" />
        </mxCell>
        <mxCell id="T4vYuUo_OKdATsCoTxh2-85" value="" style="edgeStyle=orthogonalEdgeStyle;html=1;verticalAlign=bottom;endArrow=open;endSize=8;strokeColor=#ff0000;rounded=0;entryX=0.5;entryY=0;entryDx=0;entryDy=0;" edge="1" parent="T4vYuUo_OKdATsCoTxh2-12">
          <mxGeometry relative="1" as="geometry">
            <mxPoint x="129.89999999999995" y="741" as="targetPoint" />
            <mxPoint x="129.6" y="690" as="sourcePoint" />
          </mxGeometry>
        </mxCell>
        <mxCell id="T4vYuUo_OKdATsCoTxh2-86" value="" style="edgeStyle=orthogonalEdgeStyle;html=1;verticalAlign=bottom;endArrow=open;endSize=8;strokeColor=#ff0000;rounded=0;" edge="1" parent="T4vYuUo_OKdATsCoTxh2-12">
          <mxGeometry relative="1" as="geometry">
            <mxPoint x="370" y="740" as="targetPoint" />
            <mxPoint x="370" y="660" as="sourcePoint" />
          </mxGeometry>
        </mxCell>
        <mxCell id="T4vYuUo_OKdATsCoTxh2-16" value="Sistema" style="swimlane;whiteSpace=wrap;html=1;" vertex="1" parent="Q9W1fsMLStfwctIRidVB-1">
          <mxGeometry x="440" y="30" width="630" height="940" as="geometry" />
        </mxCell>
        <mxCell id="T4vYuUo_OKdATsCoTxh2-17" value="Validación" style="rounded=1;whiteSpace=wrap;html=1;" vertex="1" parent="T4vYuUo_OKdATsCoTxh2-16">
          <mxGeometry x="270" y="340" width="80" height="40" as="geometry" />
        </mxCell>
        <mxCell id="T4vYuUo_OKdATsCoTxh2-18" value="generación automática de confirmación" style="rounded=1;whiteSpace=wrap;html=1;" vertex="1" parent="T4vYuUo_OKdATsCoTxh2-16">
          <mxGeometry x="50" y="650" width="120" height="60" as="geometry" />
        </mxCell>
        <mxCell id="T4vYuUo_OKdATsCoTxh2-19" value="Arrancasistema" style="rounded=1;whiteSpace=wrap;html=1;" vertex="1" parent="T4vYuUo_OKdATsCoTxh2-16">
          <mxGeometry x="270" y="140" width="120" height="60" as="geometry" />
        </mxCell>
        <mxCell id="T4vYuUo_OKdATsCoTxh2-20" value="Disponibilidad evento" style="rounded=1;whiteSpace=wrap;html=1;" vertex="1" parent="T4vYuUo_OKdATsCoTxh2-16">
          <mxGeometry x="140" y="521" width="90" height="40" as="geometry" />
        </mxCell>
        <mxCell id="T4vYuUo_OKdATsCoTxh2-21" value="Datos de registro" style="rounded=1;whiteSpace=wrap;html=1;" vertex="1" parent="T4vYuUo_OKdATsCoTxh2-16">
          <mxGeometry x="270" y="521" width="90" height="40" as="geometry" />
        </mxCell>
        <mxCell id="T4vYuUo_OKdATsCoTxh2-22" value="" style="shape=line;html=1;strokeWidth=6;strokeColor=#ff0000;" vertex="1" parent="T4vYuUo_OKdATsCoTxh2-16">
          <mxGeometry x="125" y="460" width="390" height="10" as="geometry" />
        </mxCell>
        <mxCell id="T4vYuUo_OKdATsCoTxh2-25" value="" style="shape=line;html=1;strokeWidth=6;strokeColor=#ff0000;" vertex="1" parent="T4vYuUo_OKdATsCoTxh2-16">
          <mxGeometry x="125" y="611" width="370" height="10" as="geometry" />
        </mxCell>
        <mxCell id="T4vYuUo_OKdATsCoTxh2-26" value="" style="edgeStyle=orthogonalEdgeStyle;html=1;verticalAlign=bottom;endArrow=open;endSize=8;strokeColor=#ff0000;rounded=0;entryX=1;entryY=0.5;entryDx=0;entryDy=0;" edge="1" parent="T4vYuUo_OKdATsCoTxh2-16" source="T4vYuUo_OKdATsCoTxh2-25" target="T4vYuUo_OKdATsCoTxh2-18">
          <mxGeometry relative="1" as="geometry">
            <mxPoint x="300" y="640" as="targetPoint" />
            <Array as="points">
              <mxPoint x="250" y="680" />
            </Array>
          </mxGeometry>
        </mxCell>
        <mxCell id="T4vYuUo_OKdATsCoTxh2-35" value="" style="shape=line;html=1;strokeWidth=6;strokeColor=#ff0000;" vertex="1" parent="T4vYuUo_OKdATsCoTxh2-16">
          <mxGeometry x="-120" y="232" width="860" height="10" as="geometry" />
        </mxCell>
        <mxCell id="T4vYuUo_OKdATsCoTxh2-54" value="" style="ellipse;html=1;shape=startState;fillColor=#000000;strokeColor=#ff0000;" vertex="1" parent="T4vYuUo_OKdATsCoTxh2-16">
          <mxGeometry x="315" y="40" width="30" height="30" as="geometry" />
        </mxCell>
        <mxCell id="T4vYuUo_OKdATsCoTxh2-55" value="" style="edgeStyle=orthogonalEdgeStyle;html=1;verticalAlign=bottom;endArrow=open;endSize=8;strokeColor=#ff0000;rounded=0;entryX=0.5;entryY=0;entryDx=0;entryDy=0;" edge="1" source="T4vYuUo_OKdATsCoTxh2-54" parent="T4vYuUo_OKdATsCoTxh2-16" target="T4vYuUo_OKdATsCoTxh2-19">
          <mxGeometry relative="1" as="geometry">
            <mxPoint x="330" y="130" as="targetPoint" />
          </mxGeometry>
        </mxCell>
        <mxCell id="T4vYuUo_OKdATsCoTxh2-57" style="edgeStyle=orthogonalEdgeStyle;rounded=0;orthogonalLoop=1;jettySize=auto;html=1;entryX=0.523;entryY=0.438;entryDx=0;entryDy=0;entryPerimeter=0;" edge="1" parent="T4vYuUo_OKdATsCoTxh2-16" source="T4vYuUo_OKdATsCoTxh2-19" target="T4vYuUo_OKdATsCoTxh2-35">
          <mxGeometry relative="1" as="geometry" />
        </mxCell>
        <mxCell id="T4vYuUo_OKdATsCoTxh2-42" value="" style="edgeStyle=orthogonalEdgeStyle;html=1;verticalAlign=bottom;endArrow=open;endSize=8;strokeColor=#ff0000;rounded=0;exitX=0.5;exitY=0.538;exitDx=0;exitDy=0;exitPerimeter=0;" edge="1" source="T4vYuUo_OKdATsCoTxh2-35" parent="T4vYuUo_OKdATsCoTxh2-16" target="T4vYuUo_OKdATsCoTxh2-17">
          <mxGeometry relative="1" as="geometry">
            <mxPoint x="313" y="400" as="targetPoint" />
            <mxPoint x="310" y="251" as="sourcePoint" />
          </mxGeometry>
        </mxCell>
        <mxCell id="T4vYuUo_OKdATsCoTxh2-67" value="Evitar duplicados" style="rounded=1;whiteSpace=wrap;html=1;" vertex="1" parent="T4vYuUo_OKdATsCoTxh2-16">
          <mxGeometry x="400" y="521" width="90" height="40" as="geometry" />
        </mxCell>
        <mxCell id="T4vYuUo_OKdATsCoTxh2-69" style="edgeStyle=orthogonalEdgeStyle;rounded=0;orthogonalLoop=1;jettySize=auto;html=1;entryX=0.473;entryY=0.621;entryDx=0;entryDy=0;entryPerimeter=0;" edge="1" parent="T4vYuUo_OKdATsCoTxh2-16" source="T4vYuUo_OKdATsCoTxh2-17" target="T4vYuUo_OKdATsCoTxh2-22">
          <mxGeometry relative="1" as="geometry" />
        </mxCell>
        <mxCell id="T4vYuUo_OKdATsCoTxh2-71" value="" style="edgeStyle=orthogonalEdgeStyle;html=1;verticalAlign=bottom;endArrow=open;endSize=8;strokeColor=#ff0000;rounded=0;entryX=0.5;entryY=0;entryDx=0;entryDy=0;" edge="1" parent="T4vYuUo_OKdATsCoTxh2-16" target="T4vYuUo_OKdATsCoTxh2-20">
          <mxGeometry relative="1" as="geometry">
            <mxPoint x="185" y="510" as="targetPoint" />
            <mxPoint x="184.7" y="470" as="sourcePoint" />
          </mxGeometry>
        </mxCell>
        <mxCell id="T4vYuUo_OKdATsCoTxh2-74" value="" style="edgeStyle=orthogonalEdgeStyle;html=1;verticalAlign=bottom;endArrow=open;endSize=8;strokeColor=#ff0000;rounded=0;" edge="1" parent="T4vYuUo_OKdATsCoTxh2-16">
          <mxGeometry relative="1" as="geometry">
            <mxPoint x="184.7" y="601" as="targetPoint" />
            <mxPoint x="184.7" y="561" as="sourcePoint" />
          </mxGeometry>
        </mxCell>
        <mxCell id="T4vYuUo_OKdATsCoTxh2-75" value="" style="edgeStyle=orthogonalEdgeStyle;html=1;verticalAlign=bottom;endArrow=open;endSize=8;strokeColor=#ff0000;rounded=0;" edge="1" parent="T4vYuUo_OKdATsCoTxh2-16">
          <mxGeometry relative="1" as="geometry">
            <mxPoint x="444.82" y="601" as="targetPoint" />
            <mxPoint x="444.82" y="561" as="sourcePoint" />
          </mxGeometry>
        </mxCell>
        <mxCell id="T4vYuUo_OKdATsCoTxh2-76" value="" style="edgeStyle=orthogonalEdgeStyle;html=1;verticalAlign=bottom;endArrow=open;endSize=8;strokeColor=#ff0000;rounded=0;" edge="1" parent="T4vYuUo_OKdATsCoTxh2-16">
          <mxGeometry relative="1" as="geometry">
            <mxPoint x="315" y="601" as="targetPoint" />
            <mxPoint x="315" y="561" as="sourcePoint" />
          </mxGeometry>
        </mxCell>
        <mxCell id="T4vYuUo_OKdATsCoTxh2-77" value="" style="edgeStyle=orthogonalEdgeStyle;html=1;verticalAlign=bottom;endArrow=open;endSize=8;strokeColor=#ff0000;rounded=0;entryX=0.5;entryY=0;entryDx=0;entryDy=0;" edge="1" parent="T4vYuUo_OKdATsCoTxh2-16">
          <mxGeometry relative="1" as="geometry">
            <mxPoint x="319.9" y="521" as="targetPoint" />
            <mxPoint x="319.6" y="470" as="sourcePoint" />
          </mxGeometry>
        </mxCell>
        <mxCell id="T4vYuUo_OKdATsCoTxh2-78" value="" style="edgeStyle=orthogonalEdgeStyle;html=1;verticalAlign=bottom;endArrow=open;endSize=8;strokeColor=#ff0000;rounded=0;entryX=0.5;entryY=0;entryDx=0;entryDy=0;" edge="1" parent="T4vYuUo_OKdATsCoTxh2-16">
          <mxGeometry relative="1" as="geometry">
            <mxPoint x="444.9" y="521" as="targetPoint" />
            <mxPoint x="444.6" y="470" as="sourcePoint" />
          </mxGeometry>
        </mxCell>
        <mxCell id="T4vYuUo_OKdATsCoTxh2-81" value="" style="ellipse;html=1;shape=endState;fillColor=#000000;strokeColor=#ff0000;" vertex="1" parent="T4vYuUo_OKdATsCoTxh2-16">
          <mxGeometry x="280" y="830" width="30" height="30" as="geometry" />
        </mxCell>
        <mxCell id="T4vYuUo_OKdATsCoTxh2-32" style="edgeStyle=orthogonalEdgeStyle;rounded=0;orthogonalLoop=1;jettySize=auto;html=1;" edge="1" parent="Q9W1fsMLStfwctIRidVB-1" source="T4vYuUo_OKdATsCoTxh2-18" target="T4vYuUo_OKdATsCoTxh2-10">
          <mxGeometry relative="1" as="geometry" />
        </mxCell>
        <mxCell id="T4vYuUo_OKdATsCoTxh2-36" value="" style="edgeStyle=orthogonalEdgeStyle;html=1;verticalAlign=bottom;endArrow=open;endSize=8;strokeColor=#ff0000;rounded=0;exitX=0.277;exitY=0.5;exitDx=0;exitDy=0;exitPerimeter=0;" edge="1" source="T4vYuUo_OKdATsCoTxh2-35" parent="Q9W1fsMLStfwctIRidVB-1" target="T4vYuUo_OKdATsCoTxh2-6">
          <mxGeometry relative="1" as="geometry">
            <mxPoint x="250" y="290" as="targetPoint" />
            <Array as="points">
              <mxPoint x="558" y="320" />
              <mxPoint x="185" y="320" />
            </Array>
          </mxGeometry>
        </mxCell>
        <mxCell id="T4vYuUo_OKdATsCoTxh2-51" value="" style="edgeStyle=orthogonalEdgeStyle;html=1;verticalAlign=bottom;endArrow=open;endSize=8;strokeColor=#ff0000;rounded=0;exitX=0.824;exitY=0.3;exitDx=0;exitDy=0;exitPerimeter=0;" edge="1" parent="Q9W1fsMLStfwctIRidVB-1" source="T4vYuUo_OKdATsCoTxh2-35" target="T4vYuUo_OKdATsCoTxh2-15">
          <mxGeometry relative="1" as="geometry">
            <mxPoint x="1280.0000000000005" y="370" as="targetPoint" />
            <mxPoint x="790" y="270" as="sourcePoint" />
            <Array as="points">
              <mxPoint x="1030" y="265" />
              <mxPoint x="1030" y="320" />
              <mxPoint x="1320" y="320" />
            </Array>
          </mxGeometry>
        </mxCell>
        <mxCell id="T4vYuUo_OKdATsCoTxh2-82" style="edgeStyle=orthogonalEdgeStyle;rounded=0;orthogonalLoop=1;jettySize=auto;html=1;entryX=0;entryY=0.5;entryDx=0;entryDy=0;" edge="1" parent="Q9W1fsMLStfwctIRidVB-1" source="T4vYuUo_OKdATsCoTxh2-11" target="T4vYuUo_OKdATsCoTxh2-81">
          <mxGeometry relative="1" as="geometry" />
        </mxCell>
        <mxCell id="T4vYuUo_OKdATsCoTxh2-87" style="edgeStyle=orthogonalEdgeStyle;rounded=0;orthogonalLoop=1;jettySize=auto;html=1;entryX=1;entryY=0.5;entryDx=0;entryDy=0;" edge="1" parent="Q9W1fsMLStfwctIRidVB-1" source="T4vYuUo_OKdATsCoTxh2-83" target="T4vYuUo_OKdATsCoTxh2-81">
          <mxGeometry relative="1" as="geometry">
            <Array as="points">
              <mxPoint x="1300" y="875" />
            </Array>
          </mxGeometry>
        </mxCell>
      </root>
    </mxGraphModel>
  </diagram>
</mxfile>
